<?xml version="1.0" encoding="UTF-8"?>
<svg width="226px" height="247px" viewBox="0 0 226 247" version="1.1" xmlns="http://www.w3.org/2000/svg" xmlns:xlink="http://www.w3.org/1999/xlink">
    <!-- Generator: Sketch 56.2 (81672) - https://sketch.com -->
    <title>Logo Copy 11</title>
    <desc>Created with Sketch.</desc>
    <g id="Logo-Presentation-02" stroke="none" stroke-width="1" fill="none" fill-rule="evenodd">
        <g id="Page-01-Copy-2" transform="translate(-1107.000000, -76.000000)" fill="#005EEC" stroke="#005EEC">
            <g id="Logo-Copy-11" transform="translate(1109.000000, 78.000000)">
                <g id="Logo-Copy-8">
                    <path d="M156.832825,140.846798 C154.738158,143.055971 151.866225,145.567253 147.882028,145.187729 L127.96293,143.509135 C125.262259,143.25423 123.496942,142.123209 121.272417,138.907635 C119.851506,137.140296 117.815181,135.860109 115.417511,135.425827 C110.102741,134.459078 105.011928,137.999419 104.048344,143.335422 C103.088523,148.669536 106.617275,153.773293 111.937692,154.734377 C114.310895,155.166771 116.635166,154.702278 118.571745,153.580698 C122.247293,151.441388 123.982498,150.948572 126.493087,151.669858 L145.687615,157.504341 C149.509959,158.663684 151.028734,160.370601 152.517397,163.992134 C155.225596,170.574337 161.118141,175.68187 168.621679,177.047026 C180.342781,179.175007 191.572681,171.367374 193.693696,159.607776 C195.807183,147.846289 188.028873,136.590835 176.307771,134.459078 C175.009191,134.223055 173.72002,134.11354 172.447787,134.11354 C166.438558,134.11354 160.824549,136.63804 156.832825,140.846798 M85.838102,127.168806 C80.7585813,129.002231 78.1162519,134.621461 79.9399109,139.717665 C80.7510533,141.996701 82.3168781,143.786697 84.2553392,144.902613 C87.9384151,147.034371 89.2313498,148.295676 89.8674661,150.833393 L94.4294365,170.434612 C95.3365609,174.33182 94.6232826,176.508894 92.2463153,179.609289 C87.9120671,185.256842 86.4497523,192.926638 89.0299756,200.131941 C93.0499298,211.379842 105.401502,217.225653 116.612582,213.190608 C127.823662,209.153675 133.654101,196.761535 129.628501,185.509858 C127.076508,178.3933 121.195254,173.440598 114.376765,171.784662 C111.425787,171.069041 107.819873,169.83417 106.154303,166.178649 L97.6420122,148.038884 C96.5165756,145.555924 96.6087936,143.46193 98.2706005,139.925365 C99.0892709,137.804936 99.170197,135.39184 98.3515265,133.092034 C96.9174418,129.085311 93.1534398,126.589135 89.1428957,126.589135 C88.0438071,126.589135 86.9296626,126.777953 85.838102,127.168806 M76.9023613,104.410547 C75.3440645,106.259077 74.5837361,108.511679 74.5837361,110.756727 C74.5912641,115.016466 74.1489939,116.776252 72.2669929,118.590795 L57.6381992,132.357531 C54.7267437,135.097283 52.4928085,135.565552 48.6215325,135.050079 C41.5828488,134.11354 34.227989,136.672027 29.2971464,142.514063 C21.6016444,151.633982 22.728963,165.285539 31.8227917,173.011981 C40.9128565,180.734645 54.5216056,179.601736 62.2189896,170.481816 C67.0877262,164.707756 68.4258289,157.12104 66.4459638,150.3689 C65.5821254,147.444106 64.853791,143.6904 67.1724162,140.414404 L78.5754602,123.957009 C80.152577,121.736506 82.00823,120.765981 85.894562,120.44499 C88.1284972,120.0919 90.2532763,118.962767 91.8303931,117.093467 C95.3215049,112.958348 94.8114827,106.766998 90.6842545,103.260644 C88.8493036,101.704782 86.6040764,100.940068 84.3720232,100.940068 C81.5923078,100.936292 78.8370583,102.120182 76.9023613,104.410547 M24.1084697,79.248632 C21.9874546,91.0082303 29.7676467,102.26746 41.4906308,104.395442 C48.9113607,105.741716 56.1269524,103.10959 60.961813,98.0114979 C63.0640081,95.804213 65.9302956,93.2891544 69.9144917,93.668679 L89.8298261,95.3453847 C92.5361435,95.6040657 94.2995784,96.7369749 96.5203396,99.9525491 C97.9431323,101.710447 99.9756934,102.994411 102.382773,103.434357 C107.695661,104.395442 112.786474,100.8551 113.744413,95.5190975 C114.707997,90.1868711 111.175481,85.0831148 105.864474,84.1163655 C103.496917,83.6896364 101.163236,84.1541292 99.226657,85.2775976 C95.5492271,87.4093552 93.8121401,87.9078353 91.3128428,87.1884379 L72.1089048,81.3539551 C68.2865608,80.1927231 66.765904,78.4858064 65.2772412,74.8642731 C62.5709238,68.280182 56.6783787,63.1688729 49.1691948,61.8093818 C47.8743781,61.573359 46.5814435,61.4581799 45.3092108,61.4581799 C35.0767714,61.4581799 25.9942347,68.7937675 24.1084697,79.248632 M155.579412,68.3727029 C150.70503,74.148652 149.370691,81.7410324 151.348674,88.4893954 C152.208749,91.4141895 152.948375,95.1660074 150.624104,98.4401152 L139.222942,114.903175 C137.649589,117.123677 135.78829,118.088539 131.896312,118.40953 C129.664259,118.764508 127.543244,119.895529 125.964245,121.762941 C122.475015,125.896172 122.990683,132.091297 127.114148,135.591987 C131.233848,139.094565 137.406811,138.582867 140.901687,134.443972 C142.452456,132.601106 143.214666,130.346617 143.214666,128.101568 C143.210902,123.838053 143.647526,122.080156 145.529527,120.265613 L160.160203,106.498877 C163.069776,103.757236 165.305594,103.292743 169.173106,103.810105 C176.215553,104.746644 183.566649,102.182492 188.499374,96.3423449 C196.196758,87.2224252 195.067557,73.5689801 185.973728,65.8425388 C181.923662,62.402271 176.972118,60.7199007 172.054449,60.7199007 C165.930418,60.7199007 159.847791,63.3199275 155.579412,68.3764792 M101.189584,25.6639111 C89.9747401,29.7027327 84.1443011,42.0929839 88.1699012,53.3408849 C90.7162485,60.4631079 96.6012656,65.4158097 103.419755,67.0717454 C106.372615,67.7873664 109.978529,69.0222375 111.642217,72.67587 L120.148862,90.8175239 C121.279945,93.2985953 121.185844,95.3982538 119.520274,98.934819 C118.711013,101.051471 118.622559,103.458903 119.45064,105.764374 C121.270535,110.86813 126.871369,113.515361 131.958418,111.687601 C137.041703,109.857953 139.685914,104.236834 137.862255,99.1330781 C137.045467,96.8578186 135.475878,95.0734865 133.539299,93.9519063 C129.863751,91.823925 128.56517,90.558843 127.9347,88.0211262 L123.368966,68.425572 C122.463723,64.5226995 123.169474,62.3475137 125.555851,59.2452304 C129.882571,53.5995658 131.34865,45.9278818 128.77219,38.7263551 C125.610429,29.8896627 117.314568,24.3875 108.471046,24.3875 C106.052675,24.3875 103.592899,24.7972355 101.189584,25.6639111" id="Fill-1" stroke-width="1.98"></path>
                    <path d="M111.514294,242.1875 C98.7245102,242.1875 87.1111045,237.090403 78.5814092,228.814306 C71.5783409,222.014992 66.6558254,213.064505 64.866512,203.023147 C55.2270617,206.714148 44.9023424,207.038926 35.3961388,204.400586 C23.8265142,201.187198 13.4599173,193.596955 6.99173957,182.35201 L11.0176948,180.00788 L6.98031842,182.35201 C6.89846684,182.212547 6.83184347,182.074994 6.7652201,181.929799 C0.555921727,170.900735 -0.789870409,158.425456 2.05018881,147.025763 C4.41055974,137.542258 9.67570974,128.792369 17.4420915,122.216578 C9.43776912,115.682818 3.99939835,106.873704 1.52671945,97.2870345 C-1.48846406,85.6313408 -0.117926103,72.8255525 6.35596223,61.5748756 L6.34834813,61.5672338 C6.42258561,61.4335019 6.50824423,61.3055013 6.59390285,61.1794112 C13.0182995,50.2611536 23.1088853,42.8504938 34.3663318,39.6199123 C43.7202534,36.9319003 53.9022083,37.1344087 63.4655176,40.6076182 C65.0968385,30.3771249 69.983187,21.2432335 77.0129047,14.298725 C85.5711528,5.84304559 97.3120947,0.6275 110.246547,0.6275 C123.032524,0.6275 134.642122,5.72077639 143.171818,14.0006938 C150.184404,20.7980972 155.108823,29.7504952 156.894329,39.7918533 C166.533779,36.1008518 176.858499,35.7722534 186.364702,38.4144144 C197.934327,41.6278018 208.297117,49.2161341 214.772908,60.466811 L210.739339,62.8052094 L214.78433,60.466811 C214.858567,60.6043638 214.928997,60.7419167 214.999428,60.8852009 C221.201112,71.9142649 222.550711,84.3876338 219.710652,95.7873263 C217.346474,105.272742 212.088938,114.022631 204.322556,120.596511 C212.323072,127.130272 217.763346,135.941296 220.234121,145.526055 C223.245498,157.183659 221.882574,169.989447 215.404879,181.240124 L215.412493,181.247766 C215.342062,181.381498 215.256404,181.511409 215.163131,181.635589 C208.746348,192.553846 198.651956,199.962596 187.402123,203.198909 C178.040588,205.881189 167.858633,205.680591 158.29913,202.209292 C156.660195,212.437875 151.781461,221.575587 144.747936,228.520096 C136.189688,236.971954 124.452553,242.1875 111.514294,242.1875 M85.0362623,222.083769 C91.8832415,228.732157 101.220031,232.822443 111.514294,232.822443 C121.932286,232.822443 131.364252,228.638544 138.222653,221.858335 C145.027754,215.143081 149.32401,205.877368 149.592407,195.616308 C149.533398,194.769976 149.712329,193.904539 150.131105,193.102147 C151.347457,190.821063 154.176095,189.959447 156.448904,191.172586 L156.44129,191.191691 C165.463998,196.027056 175.640243,196.84091 184.841882,194.198749 C193.89695,191.598618 202.00216,185.66092 207.147387,176.926314 C207.204493,176.802134 207.263503,176.683686 207.333933,176.559507 L211.378923,178.903636 L207.345354,176.559507 C212.545784,167.523048 213.649829,157.2276 211.234256,147.866364 C208.839621,138.585367 202.984378,130.209927 194.235778,124.847276 C193.493403,124.470917 192.83859,123.895869 192.37413,123.135508 C191.005496,120.940393 191.681247,118.051784 193.86459,116.687718 L196.333462,120.661467 L193.868397,116.691539 C202.563699,111.262022 208.348512,102.833089 210.672716,93.5196147 C212.955042,84.3551561 211.885261,74.3405443 206.920868,65.4932214 C206.839016,65.3843254 206.768586,65.2658771 206.701963,65.1493393 L206.709577,65.1455184 C201.507243,56.0975975 193.175514,49.9917793 183.89012,47.4145738 C174.68848,44.8583833 164.535078,45.7582082 155.533309,50.6757226 C154.834715,51.1342322 154.008585,51.4150692 153.121543,51.447547 C150.540363,51.5296966 148.383669,49.504613 148.29801,46.9178552 L152.967357,46.7611978 L148.317046,46.9063924 C147.974411,36.641511 143.600111,27.3987236 136.724579,20.7274103 C129.877599,14.0866644 120.54081,9.99255659 110.246547,9.99255659 C99.8323617,9.99255659 90.4003956,14.1783663 83.5381882,20.9547546 C76.73499,27.6757397 72.4330236,36.9357212 72.1684337,47.1948713 C72.2236359,48.0450244 72.0561257,48.9104611 71.6259291,49.7166736 C70.4133837,51.9958479 67.5847456,52.8574637 65.3138403,51.6385926 L65.323358,51.623309 C56.2968427,46.7879442 46.1244054,45.9740898 36.9132482,48.6162508 C27.8600835,51.2163818 19.7586814,57.1559903 14.6134534,65.8886858 C14.5563477,66.0109551 14.4935314,66.1313138 14.426908,66.253583 L10.3857245,63.9113636 L14.4116798,66.253583 C9.21124965,75.2957725 8.10720518,85.5854899 10.5265854,94.948636 C12.9250268,104.231543 18.7802695,112.605073 27.5250631,117.969634 C28.2693414,118.344083 28.9222505,118.919131 29.3905176,119.675671 C30.7515379,121.872696 30.0834007,124.765127 27.8962505,126.127282 L25.4273787,122.153533 L27.8886364,126.123461 C19.2009486,131.552978 13.4085222,139.981911 11.0881252,149.295385 C8.80579884,158.463665 9.87938691,168.474456 14.8399729,177.317958 C14.9180174,177.432585 14.9922549,177.545302 15.0588783,177.665661 L15.0474571,177.669482 C20.2574049,186.721223 28.5891336,192.82131 37.8707212,195.400426 C47.0723608,197.960438 57.2295699,197.056792 66.2313394,192.143098 C66.926126,191.680768 67.7484487,191.399931 68.645009,191.365543 C71.2166712,191.287214 73.373365,193.314208 73.4628306,195.897145 L68.801098,196.049981 L73.4437954,195.902876 C73.7864299,206.171579 78.1626337,215.414366 85.0362623,222.083769" id="Fill-3" stroke-width="3.96"></path>
                </g>
            </g>
        </g>
    </g>
</svg>