<?xml version="1.0" standalone="no"?>
<!DOCTYPE svg PUBLIC "-//W3C//DTD SVG 20010904//EN"
 "http://www.w3.org/TR/2001/REC-SVG-20010904/DTD/svg10.dtd">
<svg version="1.0" xmlns="http://www.w3.org/2000/svg"
 width="512.000000pt" height="512.000000pt" viewBox="0 0 512.000000 512.000000"
 preserveAspectRatio="xMidYMid meet">

<g transform="translate(0.000000,512.000000) scale(0.100000,-0.100000)"
fill="#000000" stroke="none">
<path d="M3482 4889 c-298 -63 -657 -225 -954 -431 l-96 -66 -33 35 c-146 151
-638 349 -974 392 -49 6 -105 13 -122 16 -42 5 -42 10 -3 -255 27 -186 70
-568 70 -621 l0 -22 -529 6 c-466 6 -530 5 -541 -8 -9 -11 -11 -35 -7 -83 22
-231 209 -618 425 -882 34 -41 62 -78 62 -81 0 -4 -71 -63 -159 -132 -174
-139 -267 -232 -378 -381 -84 -112 -107 -152 -99 -171 14 -37 151 -85 311
-110 179 -28 435 -102 435 -126 0 -5 -44 -55 -98 -112 -53 -56 -111 -120 -128
-142 -90 -117 -359 -547 -370 -593 -7 -26 15 -65 51 -88 25 -17 103 -15 708
13 121 5 137 4 137 -10 0 -34 -32 -170 -82 -345 -43 -151 -50 -185 -38 -192
25 -15 129 -22 223 -15 153 12 275 59 402 155 l66 50 60 -54 c33 -30 93 -70
133 -90 75 -36 246 -86 296 -86 53 0 60 -8 60 -69 0 -31 3 -80 6 -109 6 -43
11 -53 28 -58 35 -8 469 -11 494 -2 21 7 22 12 22 128 l0 120 28 5 c68 15 159
53 308 130 l162 83 46 -39 c76 -62 232 -127 421 -174 172 -43 301 -35 364 24
27 25 28 29 34 165 3 76 4 218 0 315 l-6 176 134 79 c244 143 283 170 363 246
43 41 98 103 122 137 85 118 166 325 138 353 -11 11 -34 16 -297 65 -156 29
-233 55 -277 92 -41 34 -38 55 13 83 78 44 274 254 359 386 71 111 133 262
164 406 19 88 30 329 17 378 -14 54 -51 52 -224 -13 -79 -30 -177 -64 -217
-75 l-73 -21 7 22 c4 12 14 38 24 57 10 19 51 112 93 205 117 266 157 414 160
590 2 110 -6 155 -28 155 -8 0 -121 -45 -252 -101 -278 -118 -398 -160 -543
-189 -115 -23 -310 -41 -323 -29 -12 10 12 166 83 544 33 176 59 334 58 350
-3 30 -3 30 -73 32 -40 1 -111 -7 -163 -18z m90 -149 c-2 -14 -37 -194 -78
-401 -41 -206 -74 -401 -74 -432 l0 -57 119 0 c282 0 537 57 904 202 98 38
181 68 184 65 16 -17 -159 -471 -253 -657 -117 -230 -142 -286 -149 -319 l-7
-34 48 6 c27 3 155 38 285 77 131 38 245 70 254 70 16 0 17 -8 10 -77 -16
-179 -64 -344 -137 -472 -65 -113 -261 -338 -394 -452 -46 -40 -84 -79 -84
-86 0 -52 105 -180 168 -204 15 -6 115 -31 222 -55 107 -24 201 -46 208 -49
20 -7 -59 -150 -136 -245 -91 -114 -193 -191 -384 -289 -89 -46 -175 -93 -190
-103 l-28 -19 0 -287 c0 -158 -4 -292 -8 -298 -12 -19 -285 24 -402 63 -49 16
-140 59 -154 73 -5 5 18 45 52 92 120 166 191 314 222 464 l11 51 86 12 c120
17 188 45 243 100 54 54 70 100 70 198 0 56 -5 80 -27 124 -36 70 -91 104
-194 121 l-75 12 0 285 c1 387 -30 603 -119 833 -81 209 -290 487 -464 619
-198 148 -405 209 -716 209 -506 0 -818 -176 -1018 -576 -128 -256 -229 -738
-244 -1166 l-6 -186 -36 -7 c-78 -15 -162 -79 -200 -153 -47 -93 -54 -263 -14
-352 46 -103 128 -151 270 -158 l91 -4 7 -52 c16 -127 48 -201 155 -356 39
-56 70 -104 68 -105 -2 -1 -73 -27 -158 -58 -172 -61 -230 -76 -230 -58 0 7
18 83 40 171 48 189 49 221 14 267 -49 65 -38 63 -364 52 -348 -11 -490 -5
-490 21 0 52 218 363 488 694 58 73 102 136 102 148 0 53 -147 151 -280 187
-72 19 -306 51 -380 51 -70 0 -69 11 12 107 101 119 284 293 377 358 42 30 98
76 126 104 l49 51 -19 24 c-190 235 -282 370 -365 541 -92 186 -137 373 -94
389 9 3 252 6 540 6 288 0 524 3 524 6 0 4 -20 140 -46 303 -69 453 -85 591
-69 591 3 0 60 -18 128 -41 284 -94 568 -232 722 -349 57 -44 115 -82 128 -85
18 -5 45 8 113 55 293 203 431 280 648 360 149 55 348 111 381 107 15 -1 19
-8 17 -27z m-760 -1015 c193 -33 348 -114 489 -255 191 -191 351 -506 420
-830 34 -153 34 -480 0 -695 -84 -547 -202 -892 -358 -1047 l-68 -67 -65 45
c-94 66 -135 85 -149 71 -21 -21 -11 -36 65 -97 83 -69 84 -74 11 -113 l-35
-19 -81 65 c-115 91 -127 96 -152 70 l-21 -21 73 -54 c82 -60 104 -83 95 -96
-3 -5 -33 -20 -66 -32 l-61 -23 -84 82 c-74 73 -86 81 -104 71 -12 -6 -21 -16
-20 -23 0 -7 24 -41 54 -77 l54 -65 -27 -9 c-15 -4 -128 -9 -252 -9 -320 -1
-439 20 -560 100 -210 139 -383 454 -440 803 -53 329 -51 836 6 1180 44 266
143 546 247 700 139 207 332 326 582 360 93 12 339 4 447 -15z m-1472 -2025
c11 -57 23 -143 27 -191 6 -84 5 -89 -14 -89 -32 0 -125 53 -147 83 -44 60 -9
194 69 270 21 21 40 35 42 33 2 -2 13 -49 23 -106z m2624 96 c104 -43 102
-174 -4 -270 -44 -40 -96 -66 -130 -66 -11 0 -20 2 -20 4 0 2 14 49 30 104 20
66 30 123 30 165 0 35 3 67 7 70 11 11 51 8 87 -7z m-1365 -1346 l138 0 6 -58
c9 -85 3 -100 -47 -107 -25 -4 -60 0 -91 9 -58 18 -118 20 -146 6 -16 -9 -21
-7 -29 15 -11 30 -13 128 -3 139 4 3 13 4 21 1 7 -3 76 -5 151 -5z"/>
<path d="M3125 4522 c-89 -46 -209 -126 -233 -154 -9 -12 -7 -19 13 -38 l24
-23 46 41 c39 34 149 90 258 131 15 6 27 17 27 25 0 24 -22 66 -34 66 -6 0
-52 -22 -101 -48z"/>
<path d="M1580 4502 c0 -45 60 -342 69 -342 3 0 19 11 35 23 l29 24 -13 82
c-7 45 -11 83 -9 85 2 2 41 -4 86 -14 46 -9 85 -15 88 -12 3 3 5 18 5 34 0 25
-7 32 -53 53 -49 21 -223 85 -233 85 -2 0 -4 -8 -4 -18z"/>
<path d="M2363 3379 c-249 -19 -526 -98 -566 -160 -22 -36 -28 -89 -17 -149
15 -78 25 -86 87 -61 82 32 231 70 343 86 140 21 522 30 680 16 193 -16 373
-53 477 -97 17 -7 33 59 33 137 l0 66 -57 31 c-201 106 -606 160 -980 131z
m437 -80 c166 -14 353 -47 445 -77 79 -27 80 -28 86 -65 3 -21 3 -39 0 -41 -3
-2 -40 5 -81 15 -192 50 -314 63 -565 63 -266 1 -411 -14 -657 -65 -79 -16
-146 -29 -150 -29 -11 0 -21 66 -13 90 15 49 193 100 410 119 118 10 339 6
525 -10z"/>
<path d="M1992 2919 c-127 -21 -228 -101 -273 -217 -34 -87 -38 -227 -9 -311
55 -165 169 -256 334 -268 175 -13 326 69 395 216 34 74 42 222 16 317 -38
142 -152 237 -315 263 -73 12 -74 12 -148 0z m233 -98 c96 -43 156 -125 174
-243 27 -169 -49 -313 -195 -368 -49 -18 -74 -21 -144 -18 -131 6 -207 54
-265 168 -75 148 -40 337 80 432 79 62 246 76 350 29z"/>
<path d="M2019 2551 c-32 -33 -36 -58 -14 -100 37 -73 155 -43 155 39 0 40
-47 90 -85 90 -16 0 -38 -12 -56 -29z"/>
<path d="M2839 2887 c-77 -26 -136 -70 -178 -134 -95 -143 -106 -330 -29 -492
39 -82 102 -144 186 -184 63 -30 73 -32 182 -32 97 0 124 4 173 24 116 46 211
148 244 260 21 72 21 218 0 292 -38 130 -135 229 -266 269 -90 28 -224 27
-312 -3z m323 -74 c69 -31 131 -94 164 -166 26 -56 29 -73 29 -167 0 -99 -2
-109 -33 -172 -37 -76 -82 -120 -162 -157 -48 -23 -68 -26 -155 -26 -83 0
-108 4 -150 23 -65 30 -120 84 -155 152 -109 216 -19 468 190 527 68 19 214
12 272 -14z"/>
<path d="M2972 2533 c-16 -6 -42 -56 -42 -82 0 -11 12 -33 26 -50 51 -61 144
-26 144 54 0 63 -66 103 -128 78z"/>
<path d="M1735 2080 c-23 -25 -15 -43 36 -79 99 -73 270 -100 408 -66 l71 17
0 35 0 35 -42 -9 c-24 -4 -97 -8 -163 -8 -115 0 -123 1 -185 32 -36 18 -74 39
-86 48 -19 14 -22 14 -39 -5z"/>
<path d="M3380 2043 c-118 -85 -263 -125 -377 -106 -37 7 -68 11 -69 10 -1 -1
-5 -14 -9 -30 -6 -24 -3 -29 26 -41 121 -50 317 -11 451 91 51 39 59 60 31 85
-16 15 -21 14 -53 -9z"/>
<path d="M2677 1953 c-4 -3 -7 -67 -7 -142 0 -158 -13 -256 -39 -317 -33 -75
-96 -69 -132 11 -24 55 -49 215 -49 320 0 109 -6 127 -39 123 l-26 -3 -3 -110
c-7 -261 53 -446 155 -474 68 -19 117 6 155 77 46 85 65 237 53 415 l-7 107
-27 0 c-15 0 -31 -3 -34 -7z"/>
<path d="M3151 1426 l-23 -24 36 -17 c20 -10 50 -33 67 -53 30 -34 31 -38 26
-99 l-6 -63 29 0 c36 0 44 12 42 64 -4 83 -44 159 -106 197 -39 24 -38 24 -65
-5z"/>
<path d="M1841 1384 c-43 -36 -58 -69 -67 -142 -6 -59 -6 -62 20 -73 14 -7 29
-9 33 -5 4 3 9 34 11 69 4 55 8 66 40 100 l36 37 -20 21 -21 20 -32 -27z"/>
<path d="M3055 1234 c-60 -22 -217 -60 -330 -80 -70 -12 -154 -18 -280 -18
-201 0 -321 19 -433 69 -33 15 -65 24 -71 20 -6 -3 -11 -21 -11 -40 0 -31 3
-35 54 -54 153 -57 284 -76 526 -75 231 0 328 15 507 79 112 40 127 51 117 88
-7 31 -21 32 -79 11z"/>
</g>
</svg>
